<!-- animation_5x4_1315.svg -->
<!-- Generated using p5.plotSvg v.0.1.5: -->
<!-- A Plotter-Oriented SVG Exporter for p5.js -->
<!-- Tue Oct 07 2025 13:15:10 GMT-0400 (Eastern Daylight Time) -->
<!-- DPI: 96 -->
<svg xmlns="http://www.w3.org/2000/svg" version="1.1" width="11in" height="8.5in" viewBox="0 0 1056 816">
  <style>
      circle, ellipse, line, path, polygon, polyline, rect, quad, text {
        fill: none;
        stroke: black;
        stroke-width: 1;
        stroke-linecap: round;
        stroke-linejoin: round;
        vector-effect: non-scaling-stroke;
      }
    </style>
<g vector-effect="non-scaling-stroke">
  <g id="stroke-color-group-black"><circle cx="72" cy="110.4000" r="1" style="stroke:black;" transform="matrix(1 0 0 1 0 0)"/><circle cx="72" cy="110.4000" r="2.1000" style="stroke:black;" transform="matrix(1 0 0 1 0 0)"/><circle cx="72" cy="110.4000" r="3.2000" style="stroke:black;" transform="matrix(1 0 0 1 0 0)"/><circle cx="72" cy="110.4000" r="4.3000" style="stroke:black;" transform="matrix(1 0 0 1 0 0)"/><circle cx="72" cy="110.4000" r="5.4000" style="stroke:black;" transform="matrix(1 0 0 1 0 0)"/><circle cx="72" cy="110.4000" r="6.5000" style="stroke:black;" transform="matrix(1 0 0 1 0 0)"/><circle cx="72" cy="110.4000" r="7.6000" style="stroke:black;" transform="matrix(1 0 0 1 0 0)"/><circle cx="72" cy="110.4000" r="8.7000" style="stroke:black;" transform="matrix(1 0 0 1 0 0)"/><circle cx="72" cy="110.4000" r="9.8000" style="stroke:black;" transform="matrix(1 0 0 1 0 0)"/><circle cx="72" cy="110.4000" r="10.9000" style="stroke:black;" transform="matrix(1 0 0 1 0 0)"/><circle cx="72" cy="110.4000" r="12" style="stroke:black;" transform="matrix(1 0 0 1 0 0)"/><line x1="254.4000" y1="100.8000" x2="254.4000" y2="120.0000" style="stroke:black;" transform="matrix(1 0 0 1 0 0)"/><line x1="244.8000" y1="110.4000" x2="264" y2="110.4000" style="stroke:black;" transform="matrix(1 0 0 1 0 0)"/><line x1="436.8000" y1="100.8000" x2="436.8000" y2="120.0000" style="stroke:black;" transform="matrix(1 0 0 1 0 0)"/><line x1="427.2000" y1="110.4000" x2="446.4000" y2="110.4000" style="stroke:black;" transform="matrix(1 0 0 1 0 0)"/><line x1="619.2000" y1="100.8000" x2="619.2000" y2="120.0000" style="stroke:black;" transform="matrix(1 0 0 1 0 0)"/><line x1="609.6000" y1="110.4000" x2="628.8000" y2="110.4000" style="stroke:black;" transform="matrix(1 0 0 1 0 0)"/><line x1="801.6000" y1="100.8000" x2="801.6000" y2="120.0000" style="stroke:black;" transform="matrix(1 0 0 1 0 0)"/><line x1="792" y1="110.4000" x2="811.2000" y2="110.4000" style="stroke:black;" transform="matrix(1 0 0 1 0 0)"/><circle cx="984" cy="110.4000" r="1" style="stroke:black;" transform="matrix(1 0 0 1 0 0)"/><circle cx="984" cy="110.4000" r="2.1000" style="stroke:black;" transform="matrix(1 0 0 1 0 0)"/><circle cx="984" cy="110.4000" r="3.2000" style="stroke:black;" transform="matrix(1 0 0 1 0 0)"/><circle cx="984" cy="110.4000" r="4.3000" style="stroke:black;" transform="matrix(1 0 0 1 0 0)"/><circle cx="984" cy="110.4000" r="5.4000" style="stroke:black;" transform="matrix(1 0 0 1 0 0)"/><circle cx="984" cy="110.4000" r="6.5000" style="stroke:black;" transform="matrix(1 0 0 1 0 0)"/><circle cx="984" cy="110.4000" r="7.6000" style="stroke:black;" transform="matrix(1 0 0 1 0 0)"/><circle cx="984" cy="110.4000" r="8.7000" style="stroke:black;" transform="matrix(1 0 0 1 0 0)"/><circle cx="984" cy="110.4000" r="9.8000" style="stroke:black;" transform="matrix(1 0 0 1 0 0)"/><circle cx="984" cy="110.4000" r="10.9000" style="stroke:black;" transform="matrix(1 0 0 1 0 0)"/><circle cx="984" cy="110.4000" r="12" style="stroke:black;" transform="matrix(1 0 0 1 0 0)"/><line x1="72" y1="249.6000" x2="72" y2="268.8000" style="stroke:black;" transform="matrix(1 0 0 1 0 0)"/><line x1="62.4000" y1="259.2000" x2="81.6000" y2="259.2000" style="stroke:black;" transform="matrix(1 0 0 1 0 0)"/><line x1="254.4000" y1="249.6000" x2="254.4000" y2="268.8000" style="stroke:black;" transform="matrix(1 0 0 1 0 0)"/><line x1="244.8000" y1="259.2000" x2="264" y2="259.2000" style="stroke:black;" transform="matrix(1 0 0 1 0 0)"/><line x1="436.8000" y1="249.6000" x2="436.8000" y2="268.8000" style="stroke:black;" transform="matrix(1 0 0 1 0 0)"/><line x1="427.2000" y1="259.2000" x2="446.4000" y2="259.2000" style="stroke:black;" transform="matrix(1 0 0 1 0 0)"/><line x1="619.2000" y1="249.6000" x2="619.2000" y2="268.8000" style="stroke:black;" transform="matrix(1 0 0 1 0 0)"/><line x1="609.6000" y1="259.2000" x2="628.8000" y2="259.2000" style="stroke:black;" transform="matrix(1 0 0 1 0 0)"/><line x1="801.6000" y1="249.6000" x2="801.6000" y2="268.8000" style="stroke:black;" transform="matrix(1 0 0 1 0 0)"/><line x1="792" y1="259.2000" x2="811.2000" y2="259.2000" style="stroke:black;" transform="matrix(1 0 0 1 0 0)"/><line x1="984" y1="249.6000" x2="984" y2="268.8000" style="stroke:black;" transform="matrix(1 0 0 1 0 0)"/><line x1="974.4000" y1="259.2000" x2="993.6000" y2="259.2000" style="stroke:black;" transform="matrix(1 0 0 1 0 0)"/><line x1="72" y1="398.4000" x2="72" y2="417.6000" style="stroke:black;" transform="matrix(1 0 0 1 0 0)"/><line x1="62.4000" y1="408" x2="81.6000" y2="408" style="stroke:black;" transform="matrix(1 0 0 1 0 0)"/><line x1="254.4000" y1="398.4000" x2="254.4000" y2="417.6000" style="stroke:black;" transform="matrix(1 0 0 1 0 0)"/><line x1="244.8000" y1="408" x2="264" y2="408" style="stroke:black;" transform="matrix(1 0 0 1 0 0)"/><line x1="436.8000" y1="398.4000" x2="436.8000" y2="417.6000" style="stroke:black;" transform="matrix(1 0 0 1 0 0)"/><line x1="427.2000" y1="408" x2="446.4000" y2="408" style="stroke:black;" transform="matrix(1 0 0 1 0 0)"/><line x1="619.2000" y1="398.4000" x2="619.2000" y2="417.6000" style="stroke:black;" transform="matrix(1 0 0 1 0 0)"/><line x1="609.6000" y1="408" x2="628.8000" y2="408" style="stroke:black;" transform="matrix(1 0 0 1 0 0)"/><line x1="801.6000" y1="398.4000" x2="801.6000" y2="417.6000" style="stroke:black;" transform="matrix(1 0 0 1 0 0)"/><line x1="792" y1="408" x2="811.2000" y2="408" style="stroke:black;" transform="matrix(1 0 0 1 0 0)"/><line x1="984" y1="398.4000" x2="984" y2="417.6000" style="stroke:black;" transform="matrix(1 0 0 1 0 0)"/><line x1="974.4000" y1="408" x2="993.6000" y2="408" style="stroke:black;" transform="matrix(1 0 0 1 0 0)"/><line x1="72" y1="547.2000" x2="72" y2="566.4000" style="stroke:black;" transform="matrix(1 0 0 1 0 0)"/><line x1="62.4000" y1="556.8000" x2="81.6000" y2="556.8000" style="stroke:black;" transform="matrix(1 0 0 1 0 0)"/><line x1="254.4000" y1="547.2000" x2="254.4000" y2="566.4000" style="stroke:black;" transform="matrix(1 0 0 1 0 0)"/><line x1="244.8000" y1="556.8000" x2="264" y2="556.8000" style="stroke:black;" transform="matrix(1 0 0 1 0 0)"/><line x1="436.8000" y1="547.2000" x2="436.8000" y2="566.4000" style="stroke:black;" transform="matrix(1 0 0 1 0 0)"/><line x1="427.2000" y1="556.8000" x2="446.4000" y2="556.8000" style="stroke:black;" transform="matrix(1 0 0 1 0 0)"/><line x1="619.2000" y1="547.2000" x2="619.2000" y2="566.4000" style="stroke:black;" transform="matrix(1 0 0 1 0 0)"/><line x1="609.6000" y1="556.8000" x2="628.8000" y2="556.8000" style="stroke:black;" transform="matrix(1 0 0 1 0 0)"/><line x1="801.6000" y1="547.2000" x2="801.6000" y2="566.4000" style="stroke:black;" transform="matrix(1 0 0 1 0 0)"/><line x1="792" y1="556.8000" x2="811.2000" y2="556.8000" style="stroke:black;" transform="matrix(1 0 0 1 0 0)"/><line x1="984" y1="547.2000" x2="984" y2="566.4000" style="stroke:black;" transform="matrix(1 0 0 1 0 0)"/><line x1="974.4000" y1="556.8000" x2="993.6000" y2="556.8000" style="stroke:black;" transform="matrix(1 0 0 1 0 0)"/><circle cx="72" cy="705.6000" r="1" style="stroke:black;" transform="matrix(1 0 0 1 0 0)"/><circle cx="72" cy="705.6000" r="2.1000" style="stroke:black;" transform="matrix(1 0 0 1 0 0)"/><circle cx="72" cy="705.6000" r="3.2000" style="stroke:black;" transform="matrix(1 0 0 1 0 0)"/><circle cx="72" cy="705.6000" r="4.3000" style="stroke:black;" transform="matrix(1 0 0 1 0 0)"/><circle cx="72" cy="705.6000" r="5.4000" style="stroke:black;" transform="matrix(1 0 0 1 0 0)"/><circle cx="72" cy="705.6000" r="6.5000" style="stroke:black;" transform="matrix(1 0 0 1 0 0)"/><circle cx="72" cy="705.6000" r="7.6000" style="stroke:black;" transform="matrix(1 0 0 1 0 0)"/><circle cx="72" cy="705.6000" r="8.7000" style="stroke:black;" transform="matrix(1 0 0 1 0 0)"/><circle cx="72" cy="705.6000" r="9.8000" style="stroke:black;" transform="matrix(1 0 0 1 0 0)"/><circle cx="72" cy="705.6000" r="10.9000" style="stroke:black;" transform="matrix(1 0 0 1 0 0)"/><circle cx="72" cy="705.6000" r="12" style="stroke:black;" transform="matrix(1 0 0 1 0 0)"/><line x1="254.4000" y1="696" x2="254.4000" y2="715.2000" style="stroke:black;" transform="matrix(1 0 0 1 0 0)"/><line x1="244.8000" y1="705.6000" x2="264" y2="705.6000" style="stroke:black;" transform="matrix(1 0 0 1 0 0)"/><line x1="436.8000" y1="696" x2="436.8000" y2="715.2000" style="stroke:black;" transform="matrix(1 0 0 1 0 0)"/><line x1="427.2000" y1="705.6000" x2="446.4000" y2="705.6000" style="stroke:black;" transform="matrix(1 0 0 1 0 0)"/><line x1="619.2000" y1="696" x2="619.2000" y2="715.2000" style="stroke:black;" transform="matrix(1 0 0 1 0 0)"/><line x1="609.6000" y1="705.6000" x2="628.8000" y2="705.6000" style="stroke:black;" transform="matrix(1 0 0 1 0 0)"/><line x1="801.6000" y1="696" x2="801.6000" y2="715.2000" style="stroke:black;" transform="matrix(1 0 0 1 0 0)"/><line x1="792" y1="705.6000" x2="811.2000" y2="705.6000" style="stroke:black;" transform="matrix(1 0 0 1 0 0)"/><circle cx="984" cy="705.6000" r="1" style="stroke:black;" transform="matrix(1 0 0 1 0 0)"/><circle cx="984" cy="705.6000" r="2.1000" style="stroke:black;" transform="matrix(1 0 0 1 0 0)"/><circle cx="984" cy="705.6000" r="3.2000" style="stroke:black;" transform="matrix(1 0 0 1 0 0)"/><circle cx="984" cy="705.6000" r="4.3000" style="stroke:black;" transform="matrix(1 0 0 1 0 0)"/><circle cx="984" cy="705.6000" r="5.4000" style="stroke:black;" transform="matrix(1 0 0 1 0 0)"/><circle cx="984" cy="705.6000" r="6.5000" style="stroke:black;" transform="matrix(1 0 0 1 0 0)"/><circle cx="984" cy="705.6000" r="7.6000" style="stroke:black;" transform="matrix(1 0 0 1 0 0)"/><circle cx="984" cy="705.6000" r="8.7000" style="stroke:black;" transform="matrix(1 0 0 1 0 0)"/><circle cx="984" cy="705.6000" r="9.8000" style="stroke:black;" transform="matrix(1 0 0 1 0 0)"/><circle cx="984" cy="705.6000" r="10.9000" style="stroke:black;" transform="matrix(1 0 0 1 0 0)"/><circle cx="984" cy="705.6000" r="12" style="stroke:black;" transform="matrix(1 0 0 1 0 0)"/></g><g id="stroke-color-group-red"><line x1="0" y1="69.5733" x2="0" y2="100.8000" style="stroke:red;" transform="matrix(1 0 0 1 96 134.399994)"/><line x1="7.4667" y1="30.2676" x2="7.4667" y2="0" style="stroke:red;" transform="matrix(1 0 0 1 96 134.399994)"/><line x1="14.9333" y1="70.1195" x2="14.9333" y2="100.8000" style="stroke:red;" transform="matrix(1 0 0 1 96 134.399994)"/><line x1="22.4000" y1="32.4373" x2="22.4000" y2="0" style="stroke:red;" transform="matrix(1 0 0 1 96 134.399994)"/><line x1="29.8667" y1="65.3818" x2="29.8667" y2="100.8000" style="stroke:red;" transform="matrix(1 0 0 1 96 134.399994)"/><line x1="37.3333" y1="39.4201" x2="37.3333" y2="0" style="stroke:red;" transform="matrix(1 0 0 1 96 134.399994)"/><line x1="44.8000" y1="56.6298" x2="44.8000" y2="100.8000" style="stroke:red;" transform="matrix(1 0 0 1 96 134.399994)"/><line x1="52.2667" y1="49.3449" x2="52.2667" y2="0" style="stroke:red;" transform="matrix(1 0 0 1 96 134.399994)"/><line x1="59.7333" y1="46.2085" x2="59.7333" y2="100.8000" style="stroke:red;" transform="matrix(1 0 0 1 96 134.399994)"/><line x1="67.2000" y1="59.5524" x2="67.2000" y2="0" style="stroke:red;" transform="matrix(1 0 0 1 96 134.399994)"/><line x1="74.6667" y1="36.9103" x2="74.6667" y2="100.8000" style="stroke:red;" transform="matrix(1 0 0 1 96 134.399994)"/><line x1="82.1333" y1="67.3076" x2="82.1333" y2="0" style="stroke:red;" transform="matrix(1 0 0 1 96 134.399994)"/><line x1="89.6000" y1="31.2267" x2="89.6000" y2="100.8000" style="stroke:red;" transform="matrix(1 0 0 1 96 134.399994)"/><line x1="97.0667" y1="70.5324" x2="97.0667" y2="0" style="stroke:red;" transform="matrix(1 0 0 1 96 134.399994)"/><line x1="104.5333" y1="30.6805" x2="104.5333" y2="100.8000" style="stroke:red;" transform="matrix(1 0 0 1 96 134.399994)"/><line x1="112.0000" y1="68.3627" x2="112.0000" y2="0" style="stroke:red;" transform="matrix(1 0 0 1 96 134.399994)"/><line x1="119.4667" y1="35.4182" x2="119.4667" y2="100.8000" style="stroke:red;" transform="matrix(1 0 0 1 96 134.399994)"/><line x1="126.9333" y1="61.3799" x2="126.9333" y2="0" style="stroke:red;" transform="matrix(1 0 0 1 96 134.399994)"/><line x1="134.4000" y1="44.1702" x2="134.4000" y2="100.8000" style="stroke:red;" transform="matrix(1 0 0 1 96 134.399994)"/><line x1="0" y1="70.5600" x2="0" y2="100.8000" style="stroke:red;" transform="matrix(1 0 0 1 278.399994 134.399994)"/><line x1="7.4667" y1="30.9269" x2="7.4667" y2="0" style="stroke:red;" transform="matrix(1 0 0 1 278.399994 134.399994)"/><line x1="14.9333" y1="67.8591" x2="14.9333" y2="100.8000" style="stroke:red;" transform="matrix(1 0 0 1 278.399994 134.399994)"/><line x1="22.4000" y1="36.1447" x2="22.4000" y2="0" style="stroke:red;" transform="matrix(1 0 0 1 278.399994 134.399994)"/><line x1="29.8667" y1="60.4800" x2="29.8667" y2="100.8000" style="stroke:red;" transform="matrix(1 0 0 1 278.399994 134.399994)"/><line x1="37.3333" y1="45.1822" x2="37.3333" y2="0" style="stroke:red;" transform="matrix(1 0 0 1 278.399994 134.399994)"/><line x1="44.8000" y1="50.4000" x2="44.8000" y2="100.8000" style="stroke:red;" transform="matrix(1 0 0 1 278.399994 134.399994)"/><line x1="52.2667" y1="55.6178" x2="52.2667" y2="0" style="stroke:red;" transform="matrix(1 0 0 1 278.399994 134.399994)"/><line x1="59.7333" y1="40.3200" x2="59.7333" y2="100.8000" style="stroke:red;" transform="matrix(1 0 0 1 278.399994 134.399994)"/><line x1="67.2000" y1="64.6553" x2="67.2000" y2="0" style="stroke:red;" transform="matrix(1 0 0 1 278.399994 134.399994)"/><line x1="74.6667" y1="32.9409" x2="74.6667" y2="100.8000" style="stroke:red;" transform="matrix(1 0 0 1 278.399994 134.399994)"/><line x1="82.1333" y1="69.8731" x2="82.1333" y2="0" style="stroke:red;" transform="matrix(1 0 0 1 278.399994 134.399994)"/><line x1="89.6000" y1="30.2400" x2="89.6000" y2="100.8000" style="stroke:red;" transform="matrix(1 0 0 1 278.399994 134.399994)"/><line x1="97.0667" y1="69.8731" x2="97.0667" y2="0" style="stroke:red;" transform="matrix(1 0 0 1 278.399994 134.399994)"/><line x1="104.5333" y1="32.9409" x2="104.5333" y2="100.8000" style="stroke:red;" transform="matrix(1 0 0 1 278.399994 134.399994)"/><line x1="112.0000" y1="64.6553" x2="112.0000" y2="0" style="stroke:red;" transform="matrix(1 0 0 1 278.399994 134.399994)"/><line x1="119.4667" y1="40.3200" x2="119.4667" y2="100.8000" style="stroke:red;" transform="matrix(1 0 0 1 278.399994 134.399994)"/><line x1="126.9333" y1="55.6178" x2="126.9333" y2="0" style="stroke:red;" transform="matrix(1 0 0 1 278.399994 134.399994)"/><line x1="134.4000" y1="50.4000" x2="134.4000" y2="100.8000" style="stroke:red;" transform="matrix(1 0 0 1 278.399994 134.399994)"/><line x1="0" y1="69.5733" x2="0" y2="100.8000" style="stroke:red;" transform="matrix(1 0 0 1 460.799988 134.399994)"/><line x1="7.4667" y1="33.4924" x2="7.4667" y2="0" style="stroke:red;" transform="matrix(1 0 0 1 460.799988 134.399994)"/><line x1="14.9333" y1="63.8897" x2="14.9333" y2="100.8000" style="stroke:red;" transform="matrix(1 0 0 1 460.799988 134.399994)"/><line x1="22.4000" y1="41.2476" x2="22.4000" y2="0" style="stroke:red;" transform="matrix(1 0 0 1 460.799988 134.399994)"/><line x1="29.8667" y1="54.5915" x2="29.8667" y2="100.8000" style="stroke:red;" transform="matrix(1 0 0 1 460.799988 134.399994)"/><line x1="37.3333" y1="51.4551" x2="37.3333" y2="0" style="stroke:red;" transform="matrix(1 0 0 1 460.799988 134.399994)"/><line x1="44.8000" y1="44.1702" x2="44.8000" y2="100.8000" style="stroke:red;" transform="matrix(1 0 0 1 460.799988 134.399994)"/><line x1="52.2667" y1="61.3799" x2="52.2667" y2="0" style="stroke:red;" transform="matrix(1 0 0 1 460.799988 134.399994)"/><line x1="59.7333" y1="35.4182" x2="59.7333" y2="100.8000" style="stroke:red;" transform="matrix(1 0 0 1 460.799988 134.399994)"/><line x1="67.2000" y1="68.3627" x2="67.2000" y2="0" style="stroke:red;" transform="matrix(1 0 0 1 460.799988 134.399994)"/><line x1="74.6667" y1="30.6805" x2="74.6667" y2="100.8000" style="stroke:red;" transform="matrix(1 0 0 1 460.799988 134.399994)"/><line x1="82.1333" y1="70.5324" x2="82.1333" y2="0" style="stroke:red;" transform="matrix(1 0 0 1 460.799988 134.399994)"/><line x1="89.6000" y1="31.2267" x2="89.6000" y2="100.8000" style="stroke:red;" transform="matrix(1 0 0 1 460.799988 134.399994)"/><line x1="97.0667" y1="67.3076" x2="97.0667" y2="0" style="stroke:red;" transform="matrix(1 0 0 1 460.799988 134.399994)"/><line x1="104.5333" y1="36.9103" x2="104.5333" y2="100.8000" style="stroke:red;" transform="matrix(1 0 0 1 460.799988 134.399994)"/><line x1="112.0000" y1="59.5524" x2="112.0000" y2="0" style="stroke:red;" transform="matrix(1 0 0 1 460.799988 134.399994)"/><line x1="119.4667" y1="46.2085" x2="119.4667" y2="100.8000" style="stroke:red;" transform="matrix(1 0 0 1 460.799988 134.399994)"/><line x1="126.9333" y1="49.3449" x2="126.9333" y2="0" style="stroke:red;" transform="matrix(1 0 0 1 460.799988 134.399994)"/><line x1="134.4000" y1="56.6298" x2="134.4000" y2="100.8000" style="stroke:red;" transform="matrix(1 0 0 1 460.799988 134.399994)"/><line x1="0" y1="66.7098" x2="0" y2="100.8000" style="stroke:red;" transform="matrix(1 0 0 1 643.200012 134.399994)"/><line x1="7.4667" y1="37.7129" x2="7.4667" y2="0" style="stroke:red;" transform="matrix(1 0 0 1 643.200012 134.399994)"/><line x1="14.9333" y1="58.5998" x2="14.9333" y2="100.8000" style="stroke:red;" transform="matrix(1 0 0 1 643.200012 134.399994)"/><line x1="22.4000" y1="47.2463" x2="22.4000" y2="0" style="stroke:red;" transform="matrix(1 0 0 1 643.200012 134.399994)"/><line x1="29.8667" y1="48.2927" x2="29.8667" y2="100.8000" style="stroke:red;" transform="matrix(1 0 0 1 643.200012 134.399994)"/><line x1="37.3333" y1="57.6247" x2="37.3333" y2="0" style="stroke:red;" transform="matrix(1 0 0 1 643.200012 134.399994)"/><line x1="44.8000" y1="38.5502" x2="44.8000" y2="100.8000" style="stroke:red;" transform="matrix(1 0 0 1 643.200012 134.399994)"/><line x1="52.2667" y1="66.0673" x2="52.2667" y2="0" style="stroke:red;" transform="matrix(1 0 0 1 643.200012 134.399994)"/><line x1="59.7333" y1="31.9829" x2="59.7333" y2="100.8000" style="stroke:red;" transform="matrix(1 0 0 1 643.200012 134.399994)"/><line x1="67.2000" y1="70.3118" x2="67.2000" y2="0" style="stroke:red;" transform="matrix(1 0 0 1 643.200012 134.399994)"/><line x1="74.6667" y1="30.3504" x2="74.6667" y2="100.8000" style="stroke:red;" transform="matrix(1 0 0 1 643.200012 134.399994)"/><line x1="82.1333" y1="69.2210" x2="82.1333" y2="0" style="stroke:red;" transform="matrix(1 0 0 1 643.200012 134.399994)"/><line x1="89.6000" y1="34.0902" x2="89.6000" y2="100.8000" style="stroke:red;" transform="matrix(1 0 0 1 643.200012 134.399994)"/><line x1="97.0667" y1="63.0871" x2="97.0667" y2="0" style="stroke:red;" transform="matrix(1 0 0 1 643.200012 134.399994)"/><line x1="104.5333" y1="42.2002" x2="104.5333" y2="100.8000" style="stroke:red;" transform="matrix(1 0 0 1 643.200012 134.399994)"/><line x1="112.0000" y1="53.5537" x2="112.0000" y2="0" style="stroke:red;" transform="matrix(1 0 0 1 643.200012 134.399994)"/><line x1="119.4667" y1="52.5073" x2="119.4667" y2="100.8000" style="stroke:red;" transform="matrix(1 0 0 1 643.200012 134.399994)"/><line x1="126.9333" y1="43.1753" x2="126.9333" y2="0" style="stroke:red;" transform="matrix(1 0 0 1 643.200012 134.399994)"/><line x1="134.4000" y1="62.2498" x2="134.4000" y2="100.8000" style="stroke:red;" transform="matrix(1 0 0 1 643.200012 134.399994)"/><line x1="0" y1="62.2498" x2="0" y2="100.8000" style="stroke:red;" transform="matrix(1 0 0 1 825.599976 134.399994)"/><line x1="7.4667" y1="43.1753" x2="7.4667" y2="0" style="stroke:red;" transform="matrix(1 0 0 1 825.599976 134.399994)"/><line x1="14.9333" y1="52.5073" x2="14.9333" y2="100.8000" style="stroke:red;" transform="matrix(1 0 0 1 825.599976 134.399994)"/><line x1="22.4000" y1="53.5537" x2="22.4000" y2="0" style="stroke:red;" transform="matrix(1 0 0 1 825.599976 134.399994)"/><line x1="29.8667" y1="42.2002" x2="29.8667" y2="100.8000" style="stroke:red;" transform="matrix(1 0 0 1 825.599976 134.399994)"/><line x1="37.3333" y1="63.0871" x2="37.3333" y2="0" style="stroke:red;" transform="matrix(1 0 0 1 825.599976 134.399994)"/><line x1="44.8000" y1="34.0902" x2="44.8000" y2="100.8000" style="stroke:red;" transform="matrix(1 0 0 1 825.599976 134.399994)"/><line x1="52.2667" y1="69.2210" x2="52.2667" y2="0" style="stroke:red;" transform="matrix(1 0 0 1 825.599976 134.399994)"/><line x1="59.7333" y1="30.3504" x2="59.7333" y2="100.8000" style="stroke:red;" transform="matrix(1 0 0 1 825.599976 134.399994)"/><line x1="67.2000" y1="70.3118" x2="67.2000" y2="0" style="stroke:red;" transform="matrix(1 0 0 1 825.599976 134.399994)"/><line x1="74.6667" y1="31.9829" x2="74.6667" y2="100.8000" style="stroke:red;" transform="matrix(1 0 0 1 825.599976 134.399994)"/><line x1="82.1333" y1="66.0673" x2="82.1333" y2="0" style="stroke:red;" transform="matrix(1 0 0 1 825.599976 134.399994)"/><line x1="89.6000" y1="38.5502" x2="89.6000" y2="100.8000" style="stroke:red;" transform="matrix(1 0 0 1 825.599976 134.399994)"/><line x1="97.0667" y1="57.6247" x2="97.0667" y2="0" style="stroke:red;" transform="matrix(1 0 0 1 825.599976 134.399994)"/><line x1="104.5333" y1="48.2927" x2="104.5333" y2="100.8000" style="stroke:red;" transform="matrix(1 0 0 1 825.599976 134.399994)"/><line x1="112.0000" y1="47.2463" x2="112.0000" y2="0" style="stroke:red;" transform="matrix(1 0 0 1 825.599976 134.399994)"/><line x1="119.4667" y1="58.5998" x2="119.4667" y2="100.8000" style="stroke:red;" transform="matrix(1 0 0 1 825.599976 134.399994)"/><line x1="126.9333" y1="37.7129" x2="126.9333" y2="0" style="stroke:red;" transform="matrix(1 0 0 1 825.599976 134.399994)"/><line x1="134.4000" y1="66.7098" x2="134.4000" y2="100.8000" style="stroke:red;" transform="matrix(1 0 0 1 825.599976 134.399994)"/><line x1="0" y1="56.6298" x2="0" y2="100.8000" style="stroke:red;" transform="matrix(1 0 0 1 96 283.200012)"/><line x1="7.4667" y1="49.3449" x2="7.4667" y2="0" style="stroke:red;" transform="matrix(1 0 0 1 96 283.200012)"/><line x1="14.9333" y1="46.2085" x2="14.9333" y2="100.8000" style="stroke:red;" transform="matrix(1 0 0 1 96 283.200012)"/><line x1="22.4000" y1="59.5524" x2="22.4000" y2="0" style="stroke:red;" transform="matrix(1 0 0 1 96 283.200012)"/><line x1="29.8667" y1="36.9103" x2="29.8667" y2="100.8000" style="stroke:red;" transform="matrix(1 0 0 1 96 283.200012)"/><line x1="37.3333" y1="67.3076" x2="37.3333" y2="0" style="stroke:red;" transform="matrix(1 0 0 1 96 283.200012)"/><line x1="44.8000" y1="31.2267" x2="44.8000" y2="100.8000" style="stroke:red;" transform="matrix(1 0 0 1 96 283.200012)"/><line x1="52.2667" y1="70.5324" x2="52.2667" y2="0" style="stroke:red;" transform="matrix(1 0 0 1 96 283.200012)"/><line x1="59.7333" y1="30.6805" x2="59.7333" y2="100.8000" style="stroke:red;" transform="matrix(1 0 0 1 96 283.200012)"/><line x1="67.2000" y1="68.3627" x2="67.2000" y2="0" style="stroke:red;" transform="matrix(1 0 0 1 96 283.200012)"/><line x1="74.6667" y1="35.4182" x2="74.6667" y2="100.8000" style="stroke:red;" transform="matrix(1 0 0 1 96 283.200012)"/><line x1="82.1333" y1="61.3799" x2="82.1333" y2="0" style="stroke:red;" transform="matrix(1 0 0 1 96 283.200012)"/><line x1="89.6000" y1="44.1702" x2="89.6000" y2="100.8000" style="stroke:red;" transform="matrix(1 0 0 1 96 283.200012)"/><line x1="97.0667" y1="51.4551" x2="97.0667" y2="0" style="stroke:red;" transform="matrix(1 0 0 1 96 283.200012)"/><line x1="104.5333" y1="54.5915" x2="104.5333" y2="100.8000" style="stroke:red;" transform="matrix(1 0 0 1 96 283.200012)"/><line x1="112.0000" y1="41.2476" x2="112.0000" y2="0" style="stroke:red;" transform="matrix(1 0 0 1 96 283.200012)"/><line x1="119.4667" y1="63.8897" x2="119.4667" y2="100.8000" style="stroke:red;" transform="matrix(1 0 0 1 96 283.200012)"/><line x1="126.9333" y1="33.4924" x2="126.9333" y2="0" style="stroke:red;" transform="matrix(1 0 0 1 96 283.200012)"/><line x1="134.4000" y1="69.5733" x2="134.4000" y2="100.8000" style="stroke:red;" transform="matrix(1 0 0 1 96 283.200012)"/><line x1="0" y1="50.4000" x2="0" y2="100.8000" style="stroke:red;" transform="matrix(1 0 0 1 278.399994 283.200012)"/><line x1="7.4667" y1="55.6178" x2="7.4667" y2="0" style="stroke:red;" transform="matrix(1 0 0 1 278.399994 283.200012)"/><line x1="14.9333" y1="40.3200" x2="14.9333" y2="100.8000" style="stroke:red;" transform="matrix(1 0 0 1 278.399994 283.200012)"/><line x1="22.4000" y1="64.6553" x2="22.4000" y2="0" style="stroke:red;" transform="matrix(1 0 0 1 278.399994 283.200012)"/><line x1="29.8667" y1="32.9409" x2="29.8667" y2="100.8000" style="stroke:red;" transform="matrix(1 0 0 1 278.399994 283.200012)"/><line x1="37.3333" y1="69.8731" x2="37.3333" y2="0" style="stroke:red;" transform="matrix(1 0 0 1 278.399994 283.200012)"/><line x1="44.8000" y1="30.2400" x2="44.8000" y2="100.8000" style="stroke:red;" transform="matrix(1 0 0 1 278.399994 283.200012)"/><line x1="52.2667" y1="69.8731" x2="52.2667" y2="0" style="stroke:red;" transform="matrix(1 0 0 1 278.399994 283.200012)"/><line x1="59.7333" y1="32.9409" x2="59.7333" y2="100.8000" style="stroke:red;" transform="matrix(1 0 0 1 278.399994 283.200012)"/><line x1="67.2000" y1="64.6553" x2="67.2000" y2="0" style="stroke:red;" transform="matrix(1 0 0 1 278.399994 283.200012)"/><line x1="74.6667" y1="40.3200" x2="74.6667" y2="100.8000" style="stroke:red;" transform="matrix(1 0 0 1 278.399994 283.200012)"/><line x1="82.1333" y1="55.6178" x2="82.1333" y2="0" style="stroke:red;" transform="matrix(1 0 0 1 278.399994 283.200012)"/><line x1="89.6000" y1="50.4000" x2="89.6000" y2="100.8000" style="stroke:red;" transform="matrix(1 0 0 1 278.399994 283.200012)"/><line x1="97.0667" y1="45.1822" x2="97.0667" y2="0" style="stroke:red;" transform="matrix(1 0 0 1 278.399994 283.200012)"/><line x1="104.5333" y1="60.4800" x2="104.5333" y2="100.8000" style="stroke:red;" transform="matrix(1 0 0 1 278.399994 283.200012)"/><line x1="112.0000" y1="36.1447" x2="112.0000" y2="0" style="stroke:red;" transform="matrix(1 0 0 1 278.399994 283.200012)"/><line x1="119.4667" y1="67.8591" x2="119.4667" y2="100.8000" style="stroke:red;" transform="matrix(1 0 0 1 278.399994 283.200012)"/><line x1="126.9333" y1="30.9269" x2="126.9333" y2="0" style="stroke:red;" transform="matrix(1 0 0 1 278.399994 283.200012)"/><line x1="134.4000" y1="70.5600" x2="134.4000" y2="100.8000" style="stroke:red;" transform="matrix(1 0 0 1 278.399994 283.200012)"/><line x1="0" y1="44.1702" x2="0" y2="100.8000" style="stroke:red;" transform="matrix(1 0 0 1 460.799988 283.200012)"/><line x1="7.4667" y1="61.3799" x2="7.4667" y2="0" style="stroke:red;" transform="matrix(1 0 0 1 460.799988 283.200012)"/><line x1="14.9333" y1="35.4182" x2="14.9333" y2="100.8000" style="stroke:red;" transform="matrix(1 0 0 1 460.799988 283.200012)"/><line x1="22.4000" y1="68.3627" x2="22.4000" y2="0" style="stroke:red;" transform="matrix(1 0 0 1 460.799988 283.200012)"/><line x1="29.8667" y1="30.6805" x2="29.8667" y2="100.8000" style="stroke:red;" transform="matrix(1 0 0 1 460.799988 283.200012)"/><line x1="37.3333" y1="70.5324" x2="37.3333" y2="0" style="stroke:red;" transform="matrix(1 0 0 1 460.799988 283.200012)"/><line x1="44.8000" y1="31.2267" x2="44.8000" y2="100.8000" style="stroke:red;" transform="matrix(1 0 0 1 460.799988 283.200012)"/><line x1="52.2667" y1="67.3076" x2="52.2667" y2="0" style="stroke:red;" transform="matrix(1 0 0 1 460.799988 283.200012)"/><line x1="59.7333" y1="36.9103" x2="59.7333" y2="100.8000" style="stroke:red;" transform="matrix(1 0 0 1 460.799988 283.200012)"/><line x1="67.2000" y1="59.5524" x2="67.2000" y2="0" style="stroke:red;" transform="matrix(1 0 0 1 460.799988 283.200012)"/><line x1="74.6667" y1="46.2085" x2="74.6667" y2="100.8000" style="stroke:red;" transform="matrix(1 0 0 1 460.799988 283.200012)"/><line x1="82.1333" y1="49.3449" x2="82.1333" y2="0" style="stroke:red;" transform="matrix(1 0 0 1 460.799988 283.200012)"/><line x1="89.6000" y1="56.6298" x2="89.6000" y2="100.8000" style="stroke:red;" transform="matrix(1 0 0 1 460.799988 283.200012)"/><line x1="97.0667" y1="39.4201" x2="97.0667" y2="0" style="stroke:red;" transform="matrix(1 0 0 1 460.799988 283.200012)"/><line x1="104.5333" y1="65.3818" x2="104.5333" y2="100.8000" style="stroke:red;" transform="matrix(1 0 0 1 460.799988 283.200012)"/><line x1="112.0000" y1="32.4373" x2="112.0000" y2="0" style="stroke:red;" transform="matrix(1 0 0 1 460.799988 283.200012)"/><line x1="119.4667" y1="70.1195" x2="119.4667" y2="100.8000" style="stroke:red;" transform="matrix(1 0 0 1 460.799988 283.200012)"/><line x1="126.9333" y1="30.2676" x2="126.9333" y2="0" style="stroke:red;" transform="matrix(1 0 0 1 460.799988 283.200012)"/><line x1="134.4000" y1="69.5733" x2="134.4000" y2="100.8000" style="stroke:red;" transform="matrix(1 0 0 1 460.799988 283.200012)"/><line x1="0" y1="38.5502" x2="0" y2="100.8000" style="stroke:red;" transform="matrix(1 0 0 1 643.200012 283.200012)"/><line x1="7.4667" y1="66.0673" x2="7.4667" y2="0" style="stroke:red;" transform="matrix(1 0 0 1 643.200012 283.200012)"/><line x1="14.9333" y1="31.9829" x2="14.9333" y2="100.8000" style="stroke:red;" transform="matrix(1 0 0 1 643.200012 283.200012)"/><line x1="22.4000" y1="70.3118" x2="22.4000" y2="0" style="stroke:red;" transform="matrix(1 0 0 1 643.200012 283.200012)"/><line x1="29.8667" y1="30.3504" x2="29.8667" y2="100.8000" style="stroke:red;" transform="matrix(1 0 0 1 643.200012 283.200012)"/><line x1="37.3333" y1="69.2210" x2="37.3333" y2="0" style="stroke:red;" transform="matrix(1 0 0 1 643.200012 283.200012)"/><line x1="44.8000" y1="34.0902" x2="44.8000" y2="100.8000" style="stroke:red;" transform="matrix(1 0 0 1 643.200012 283.200012)"/><line x1="52.2667" y1="63.0871" x2="52.2667" y2="0" style="stroke:red;" transform="matrix(1 0 0 1 643.200012 283.200012)"/><line x1="59.7333" y1="42.2002" x2="59.7333" y2="100.8000" style="stroke:red;" transform="matrix(1 0 0 1 643.200012 283.200012)"/><line x1="67.2000" y1="53.5537" x2="67.2000" y2="0" style="stroke:red;" transform="matrix(1 0 0 1 643.200012 283.200012)"/><line x1="74.6667" y1="52.5073" x2="74.6667" y2="100.8000" style="stroke:red;" transform="matrix(1 0 0 1 643.200012 283.200012)"/><line x1="82.1333" y1="43.1753" x2="82.1333" y2="0" style="stroke:red;" transform="matrix(1 0 0 1 643.200012 283.200012)"/><line x1="89.6000" y1="62.2498" x2="89.6000" y2="100.8000" style="stroke:red;" transform="matrix(1 0 0 1 643.200012 283.200012)"/><line x1="97.0667" y1="34.7327" x2="97.0667" y2="0" style="stroke:red;" transform="matrix(1 0 0 1 643.200012 283.200012)"/><line x1="104.5333" y1="68.8171" x2="104.5333" y2="100.8000" style="stroke:red;" transform="matrix(1 0 0 1 643.200012 283.200012)"/><line x1="112.0000" y1="30.4882" x2="112.0000" y2="0" style="stroke:red;" transform="matrix(1 0 0 1 643.200012 283.200012)"/><line x1="119.4667" y1="70.4496" x2="119.4667" y2="100.8000" style="stroke:red;" transform="matrix(1 0 0 1 643.200012 283.200012)"/><line x1="126.9333" y1="31.5790" x2="126.9333" y2="0" style="stroke:red;" transform="matrix(1 0 0 1 643.200012 283.200012)"/><line x1="134.4000" y1="66.7098" x2="134.4000" y2="100.8000" style="stroke:red;" transform="matrix(1 0 0 1 643.200012 283.200012)"/><line x1="0" y1="34.0902" x2="0" y2="100.8000" style="stroke:red;" transform="matrix(1 0 0 1 825.599976 283.200012)"/><line x1="7.4667" y1="69.2210" x2="7.4667" y2="0" style="stroke:red;" transform="matrix(1 0 0 1 825.599976 283.200012)"/><line x1="14.9333" y1="30.3504" x2="14.9333" y2="100.8000" style="stroke:red;" transform="matrix(1 0 0 1 825.599976 283.200012)"/><line x1="22.4000" y1="70.3118" x2="22.4000" y2="0" style="stroke:red;" transform="matrix(1 0 0 1 825.599976 283.200012)"/><line x1="29.8667" y1="31.9829" x2="29.8667" y2="100.8000" style="stroke:red;" transform="matrix(1 0 0 1 825.599976 283.200012)"/><line x1="37.3333" y1="66.0673" x2="37.3333" y2="0" style="stroke:red;" transform="matrix(1 0 0 1 825.599976 283.200012)"/><line x1="44.8000" y1="38.5502" x2="44.8000" y2="100.8000" style="stroke:red;" transform="matrix(1 0 0 1 825.599976 283.200012)"/><line x1="52.2667" y1="57.6247" x2="52.2667" y2="0" style="stroke:red;" transform="matrix(1 0 0 1 825.599976 283.200012)"/><line x1="59.7333" y1="48.2927" x2="59.7333" y2="100.8000" style="stroke:red;" transform="matrix(1 0 0 1 825.599976 283.200012)"/><line x1="67.2000" y1="47.2463" x2="67.2000" y2="0" style="stroke:red;" transform="matrix(1 0 0 1 825.599976 283.200012)"/><line x1="74.6667" y1="58.5998" x2="74.6667" y2="100.8000" style="stroke:red;" transform="matrix(1 0 0 1 825.599976 283.200012)"/><line x1="82.1333" y1="37.7129" x2="82.1333" y2="0" style="stroke:red;" transform="matrix(1 0 0 1 825.599976 283.200012)"/><line x1="89.6000" y1="66.7098" x2="89.6000" y2="100.8000" style="stroke:red;" transform="matrix(1 0 0 1 825.599976 283.200012)"/><line x1="97.0667" y1="31.5790" x2="97.0667" y2="0" style="stroke:red;" transform="matrix(1 0 0 1 825.599976 283.200012)"/><line x1="104.5333" y1="70.4496" x2="104.5333" y2="100.8000" style="stroke:red;" transform="matrix(1 0 0 1 825.599976 283.200012)"/><line x1="112.0000" y1="30.4882" x2="112.0000" y2="0" style="stroke:red;" transform="matrix(1 0 0 1 825.599976 283.200012)"/><line x1="119.4667" y1="68.8171" x2="119.4667" y2="100.8000" style="stroke:red;" transform="matrix(1 0 0 1 825.599976 283.200012)"/><line x1="126.9333" y1="34.7327" x2="126.9333" y2="0" style="stroke:red;" transform="matrix(1 0 0 1 825.599976 283.200012)"/><line x1="134.4000" y1="62.2498" x2="134.4000" y2="100.8000" style="stroke:red;" transform="matrix(1 0 0 1 825.599976 283.200012)"/><line x1="0" y1="31.2267" x2="0" y2="100.8000" style="stroke:red;" transform="matrix(1 0 0 1 96 432)"/><line x1="7.4667" y1="70.5324" x2="7.4667" y2="0" style="stroke:red;" transform="matrix(1 0 0 1 96 432)"/><line x1="14.9333" y1="30.6805" x2="14.9333" y2="100.8000" style="stroke:red;" transform="matrix(1 0 0 1 96 432)"/><line x1="22.4000" y1="68.3627" x2="22.4000" y2="0" style="stroke:red;" transform="matrix(1 0 0 1 96 432)"/><line x1="29.8667" y1="35.4182" x2="29.8667" y2="100.8000" style="stroke:red;" transform="matrix(1 0 0 1 96 432)"/><line x1="37.3333" y1="61.3799" x2="37.3333" y2="0" style="stroke:red;" transform="matrix(1 0 0 1 96 432)"/><line x1="44.8000" y1="44.1702" x2="44.8000" y2="100.8000" style="stroke:red;" transform="matrix(1 0 0 1 96 432)"/><line x1="52.2667" y1="51.4551" x2="52.2667" y2="0" style="stroke:red;" transform="matrix(1 0 0 1 96 432)"/><line x1="59.7333" y1="54.5915" x2="59.7333" y2="100.8000" style="stroke:red;" transform="matrix(1 0 0 1 96 432)"/><line x1="67.2000" y1="41.2476" x2="67.2000" y2="0" style="stroke:red;" transform="matrix(1 0 0 1 96 432)"/><line x1="74.6667" y1="63.8897" x2="74.6667" y2="100.8000" style="stroke:red;" transform="matrix(1 0 0 1 96 432)"/><line x1="82.1333" y1="33.4924" x2="82.1333" y2="0" style="stroke:red;" transform="matrix(1 0 0 1 96 432)"/><line x1="89.6000" y1="69.5733" x2="89.6000" y2="100.8000" style="stroke:red;" transform="matrix(1 0 0 1 96 432)"/><line x1="97.0667" y1="30.2676" x2="97.0667" y2="0" style="stroke:red;" transform="matrix(1 0 0 1 96 432)"/><line x1="104.5333" y1="70.1195" x2="104.5333" y2="100.8000" style="stroke:red;" transform="matrix(1 0 0 1 96 432)"/><line x1="112.0000" y1="32.4373" x2="112.0000" y2="0" style="stroke:red;" transform="matrix(1 0 0 1 96 432)"/><line x1="119.4667" y1="65.3818" x2="119.4667" y2="100.8000" style="stroke:red;" transform="matrix(1 0 0 1 96 432)"/><line x1="126.9333" y1="39.4201" x2="126.9333" y2="0" style="stroke:red;" transform="matrix(1 0 0 1 96 432)"/><line x1="134.4000" y1="56.6298" x2="134.4000" y2="100.8000" style="stroke:red;" transform="matrix(1 0 0 1 96 432)"/><line x1="0" y1="30.2400" x2="0" y2="100.8000" style="stroke:red;" transform="matrix(1 0 0 1 278.399994 432)"/><line x1="7.4667" y1="69.8731" x2="7.4667" y2="0" style="stroke:red;" transform="matrix(1 0 0 1 278.399994 432)"/><line x1="14.9333" y1="32.9409" x2="14.9333" y2="100.8000" style="stroke:red;" transform="matrix(1 0 0 1 278.399994 432)"/><line x1="22.4000" y1="64.6553" x2="22.4000" y2="0" style="stroke:red;" transform="matrix(1 0 0 1 278.399994 432)"/><line x1="29.8667" y1="40.3200" x2="29.8667" y2="100.8000" style="stroke:red;" transform="matrix(1 0 0 1 278.399994 432)"/><line x1="37.3333" y1="55.6178" x2="37.3333" y2="0" style="stroke:red;" transform="matrix(1 0 0 1 278.399994 432)"/><line x1="44.8000" y1="50.4000" x2="44.8000" y2="100.8000" style="stroke:red;" transform="matrix(1 0 0 1 278.399994 432)"/><line x1="52.2667" y1="45.1822" x2="52.2667" y2="0" style="stroke:red;" transform="matrix(1 0 0 1 278.399994 432)"/><line x1="59.7333" y1="60.4800" x2="59.7333" y2="100.8000" style="stroke:red;" transform="matrix(1 0 0 1 278.399994 432)"/><line x1="67.2000" y1="36.1447" x2="67.2000" y2="0" style="stroke:red;" transform="matrix(1 0 0 1 278.399994 432)"/><line x1="74.6667" y1="67.8591" x2="74.6667" y2="100.8000" style="stroke:red;" transform="matrix(1 0 0 1 278.399994 432)"/><line x1="82.1333" y1="30.9269" x2="82.1333" y2="0" style="stroke:red;" transform="matrix(1 0 0 1 278.399994 432)"/><line x1="89.6000" y1="70.5600" x2="89.6000" y2="100.8000" style="stroke:red;" transform="matrix(1 0 0 1 278.399994 432)"/><line x1="97.0667" y1="30.9269" x2="97.0667" y2="0" style="stroke:red;" transform="matrix(1 0 0 1 278.399994 432)"/><line x1="104.5333" y1="67.8591" x2="104.5333" y2="100.8000" style="stroke:red;" transform="matrix(1 0 0 1 278.399994 432)"/><line x1="112.0000" y1="36.1447" x2="112.0000" y2="0" style="stroke:red;" transform="matrix(1 0 0 1 278.399994 432)"/><line x1="119.4667" y1="60.4800" x2="119.4667" y2="100.8000" style="stroke:red;" transform="matrix(1 0 0 1 278.399994 432)"/><line x1="126.9333" y1="45.1822" x2="126.9333" y2="0" style="stroke:red;" transform="matrix(1 0 0 1 278.399994 432)"/><line x1="134.4000" y1="50.4000" x2="134.4000" y2="100.8000" style="stroke:red;" transform="matrix(1 0 0 1 278.399994 432)"/><line x1="0" y1="31.2267" x2="0" y2="100.8000" style="stroke:red;" transform="matrix(1 0 0 1 460.799988 432)"/><line x1="7.4667" y1="67.3076" x2="7.4667" y2="0" style="stroke:red;" transform="matrix(1 0 0 1 460.799988 432)"/><line x1="14.9333" y1="36.9103" x2="14.9333" y2="100.8000" style="stroke:red;" transform="matrix(1 0 0 1 460.799988 432)"/><line x1="22.4000" y1="59.5524" x2="22.4000" y2="0" style="stroke:red;" transform="matrix(1 0 0 1 460.799988 432)"/><line x1="29.8667" y1="46.2085" x2="29.8667" y2="100.8000" style="stroke:red;" transform="matrix(1 0 0 1 460.799988 432)"/><line x1="37.3333" y1="49.3449" x2="37.3333" y2="0" style="stroke:red;" transform="matrix(1 0 0 1 460.799988 432)"/><line x1="44.8000" y1="56.6298" x2="44.8000" y2="100.8000" style="stroke:red;" transform="matrix(1 0 0 1 460.799988 432)"/><line x1="52.2667" y1="39.4201" x2="52.2667" y2="0" style="stroke:red;" transform="matrix(1 0 0 1 460.799988 432)"/><line x1="59.7333" y1="65.3818" x2="59.7333" y2="100.8000" style="stroke:red;" transform="matrix(1 0 0 1 460.799988 432)"/><line x1="67.2000" y1="32.4373" x2="67.2000" y2="0" style="stroke:red;" transform="matrix(1 0 0 1 460.799988 432)"/><line x1="74.6667" y1="70.1195" x2="74.6667" y2="100.8000" style="stroke:red;" transform="matrix(1 0 0 1 460.799988 432)"/><line x1="82.1333" y1="30.2676" x2="82.1333" y2="0" style="stroke:red;" transform="matrix(1 0 0 1 460.799988 432)"/><line x1="89.6000" y1="69.5733" x2="89.6000" y2="100.8000" style="stroke:red;" transform="matrix(1 0 0 1 460.799988 432)"/><line x1="97.0667" y1="33.4924" x2="97.0667" y2="0" style="stroke:red;" transform="matrix(1 0 0 1 460.799988 432)"/><line x1="104.5333" y1="63.8897" x2="104.5333" y2="100.8000" style="stroke:red;" transform="matrix(1 0 0 1 460.799988 432)"/><line x1="112.0000" y1="41.2476" x2="112.0000" y2="0" style="stroke:red;" transform="matrix(1 0 0 1 460.799988 432)"/><line x1="119.4667" y1="54.5915" x2="119.4667" y2="100.8000" style="stroke:red;" transform="matrix(1 0 0 1 460.799988 432)"/><line x1="126.9333" y1="51.4551" x2="126.9333" y2="0" style="stroke:red;" transform="matrix(1 0 0 1 460.799988 432)"/><line x1="134.4000" y1="44.1702" x2="134.4000" y2="100.8000" style="stroke:red;" transform="matrix(1 0 0 1 460.799988 432)"/><line x1="0" y1="34.0902" x2="0" y2="100.8000" style="stroke:red;" transform="matrix(1 0 0 1 643.200012 432)"/><line x1="7.4667" y1="63.0871" x2="7.4667" y2="0" style="stroke:red;" transform="matrix(1 0 0 1 643.200012 432)"/><line x1="14.9333" y1="42.2002" x2="14.9333" y2="100.8000" style="stroke:red;" transform="matrix(1 0 0 1 643.200012 432)"/><line x1="22.4000" y1="53.5537" x2="22.4000" y2="0" style="stroke:red;" transform="matrix(1 0 0 1 643.200012 432)"/><line x1="29.8667" y1="52.5073" x2="29.8667" y2="100.8000" style="stroke:red;" transform="matrix(1 0 0 1 643.200012 432)"/><line x1="37.3333" y1="43.1753" x2="37.3333" y2="0" style="stroke:red;" transform="matrix(1 0 0 1 643.200012 432)"/><line x1="44.8000" y1="62.2498" x2="44.8000" y2="100.8000" style="stroke:red;" transform="matrix(1 0 0 1 643.200012 432)"/><line x1="52.2667" y1="34.7327" x2="52.2667" y2="0" style="stroke:red;" transform="matrix(1 0 0 1 643.200012 432)"/><line x1="59.7333" y1="68.8171" x2="59.7333" y2="100.8000" style="stroke:red;" transform="matrix(1 0 0 1 643.200012 432)"/><line x1="67.2000" y1="30.4882" x2="67.2000" y2="0" style="stroke:red;" transform="matrix(1 0 0 1 643.200012 432)"/><line x1="74.6667" y1="70.4496" x2="74.6667" y2="100.8000" style="stroke:red;" transform="matrix(1 0 0 1 643.200012 432)"/><line x1="82.1333" y1="31.5790" x2="82.1333" y2="0" style="stroke:red;" transform="matrix(1 0 0 1 643.200012 432)"/><line x1="89.6000" y1="66.7098" x2="89.6000" y2="100.8000" style="stroke:red;" transform="matrix(1 0 0 1 643.200012 432)"/><line x1="97.0667" y1="37.7129" x2="97.0667" y2="0" style="stroke:red;" transform="matrix(1 0 0 1 643.200012 432)"/><line x1="104.5333" y1="58.5998" x2="104.5333" y2="100.8000" style="stroke:red;" transform="matrix(1 0 0 1 643.200012 432)"/><line x1="112.0000" y1="47.2463" x2="112.0000" y2="0" style="stroke:red;" transform="matrix(1 0 0 1 643.200012 432)"/><line x1="119.4667" y1="48.2927" x2="119.4667" y2="100.8000" style="stroke:red;" transform="matrix(1 0 0 1 643.200012 432)"/><line x1="126.9333" y1="57.6247" x2="126.9333" y2="0" style="stroke:red;" transform="matrix(1 0 0 1 643.200012 432)"/><line x1="134.4000" y1="38.5502" x2="134.4000" y2="100.8000" style="stroke:red;" transform="matrix(1 0 0 1 643.200012 432)"/><line x1="0" y1="38.5502" x2="0" y2="100.8000" style="stroke:red;" transform="matrix(1 0 0 1 825.599976 432)"/><line x1="7.4667" y1="57.6247" x2="7.4667" y2="0" style="stroke:red;" transform="matrix(1 0 0 1 825.599976 432)"/><line x1="14.9333" y1="48.2927" x2="14.9333" y2="100.8000" style="stroke:red;" transform="matrix(1 0 0 1 825.599976 432)"/><line x1="22.4000" y1="47.2463" x2="22.4000" y2="0" style="stroke:red;" transform="matrix(1 0 0 1 825.599976 432)"/><line x1="29.8667" y1="58.5998" x2="29.8667" y2="100.8000" style="stroke:red;" transform="matrix(1 0 0 1 825.599976 432)"/><line x1="37.3333" y1="37.7129" x2="37.3333" y2="0" style="stroke:red;" transform="matrix(1 0 0 1 825.599976 432)"/><line x1="44.8000" y1="66.7098" x2="44.8000" y2="100.8000" style="stroke:red;" transform="matrix(1 0 0 1 825.599976 432)"/><line x1="52.2667" y1="31.5790" x2="52.2667" y2="0" style="stroke:red;" transform="matrix(1 0 0 1 825.599976 432)"/><line x1="59.7333" y1="70.4496" x2="59.7333" y2="100.8000" style="stroke:red;" transform="matrix(1 0 0 1 825.599976 432)"/><line x1="67.2000" y1="30.4882" x2="67.2000" y2="0" style="stroke:red;" transform="matrix(1 0 0 1 825.599976 432)"/><line x1="74.6667" y1="68.8171" x2="74.6667" y2="100.8000" style="stroke:red;" transform="matrix(1 0 0 1 825.599976 432)"/><line x1="82.1333" y1="34.7327" x2="82.1333" y2="0" style="stroke:red;" transform="matrix(1 0 0 1 825.599976 432)"/><line x1="89.6000" y1="62.2498" x2="89.6000" y2="100.8000" style="stroke:red;" transform="matrix(1 0 0 1 825.599976 432)"/><line x1="97.0667" y1="43.1753" x2="97.0667" y2="0" style="stroke:red;" transform="matrix(1 0 0 1 825.599976 432)"/><line x1="104.5333" y1="52.5073" x2="104.5333" y2="100.8000" style="stroke:red;" transform="matrix(1 0 0 1 825.599976 432)"/><line x1="112.0000" y1="53.5537" x2="112.0000" y2="0" style="stroke:red;" transform="matrix(1 0 0 1 825.599976 432)"/><line x1="119.4667" y1="42.2002" x2="119.4667" y2="100.8000" style="stroke:red;" transform="matrix(1 0 0 1 825.599976 432)"/><line x1="126.9333" y1="63.0871" x2="126.9333" y2="0" style="stroke:red;" transform="matrix(1 0 0 1 825.599976 432)"/><line x1="134.4000" y1="34.0902" x2="134.4000" y2="100.8000" style="stroke:red;" transform="matrix(1 0 0 1 825.599976 432)"/><line x1="0" y1="44.1702" x2="0" y2="100.8000" style="stroke:red;" transform="matrix(1 0 0 1 96 580.799988)"/><line x1="7.4667" y1="51.4551" x2="7.4667" y2="0" style="stroke:red;" transform="matrix(1 0 0 1 96 580.799988)"/><line x1="14.9333" y1="54.5915" x2="14.9333" y2="100.8000" style="stroke:red;" transform="matrix(1 0 0 1 96 580.799988)"/><line x1="22.4000" y1="41.2476" x2="22.4000" y2="0" style="stroke:red;" transform="matrix(1 0 0 1 96 580.799988)"/><line x1="29.8667" y1="63.8897" x2="29.8667" y2="100.8000" style="stroke:red;" transform="matrix(1 0 0 1 96 580.799988)"/><line x1="37.3333" y1="33.4924" x2="37.3333" y2="0" style="stroke:red;" transform="matrix(1 0 0 1 96 580.799988)"/><line x1="44.8000" y1="69.5733" x2="44.8000" y2="100.8000" style="stroke:red;" transform="matrix(1 0 0 1 96 580.799988)"/><line x1="52.2667" y1="30.2676" x2="52.2667" y2="0" style="stroke:red;" transform="matrix(1 0 0 1 96 580.799988)"/><line x1="59.7333" y1="70.1195" x2="59.7333" y2="100.8000" style="stroke:red;" transform="matrix(1 0 0 1 96 580.799988)"/><line x1="67.2000" y1="32.4373" x2="67.2000" y2="0" style="stroke:red;" transform="matrix(1 0 0 1 96 580.799988)"/><line x1="74.6667" y1="65.3818" x2="74.6667" y2="100.8000" style="stroke:red;" transform="matrix(1 0 0 1 96 580.799988)"/><line x1="82.1333" y1="39.4201" x2="82.1333" y2="0" style="stroke:red;" transform="matrix(1 0 0 1 96 580.799988)"/><line x1="89.6000" y1="56.6298" x2="89.6000" y2="100.8000" style="stroke:red;" transform="matrix(1 0 0 1 96 580.799988)"/><line x1="97.0667" y1="49.3449" x2="97.0667" y2="0" style="stroke:red;" transform="matrix(1 0 0 1 96 580.799988)"/><line x1="104.5333" y1="46.2085" x2="104.5333" y2="100.8000" style="stroke:red;" transform="matrix(1 0 0 1 96 580.799988)"/><line x1="112.0000" y1="59.5524" x2="112.0000" y2="0" style="stroke:red;" transform="matrix(1 0 0 1 96 580.799988)"/><line x1="119.4667" y1="36.9103" x2="119.4667" y2="100.8000" style="stroke:red;" transform="matrix(1 0 0 1 96 580.799988)"/><line x1="126.9333" y1="67.3076" x2="126.9333" y2="0" style="stroke:red;" transform="matrix(1 0 0 1 96 580.799988)"/><line x1="134.4000" y1="31.2267" x2="134.4000" y2="100.8000" style="stroke:red;" transform="matrix(1 0 0 1 96 580.799988)"/><line x1="0" y1="50.4000" x2="0" y2="100.8000" style="stroke:red;" transform="matrix(1 0 0 1 278.399994 580.799988)"/><line x1="7.4667" y1="45.1822" x2="7.4667" y2="0" style="stroke:red;" transform="matrix(1 0 0 1 278.399994 580.799988)"/><line x1="14.9333" y1="60.4800" x2="14.9333" y2="100.8000" style="stroke:red;" transform="matrix(1 0 0 1 278.399994 580.799988)"/><line x1="22.4000" y1="36.1447" x2="22.4000" y2="0" style="stroke:red;" transform="matrix(1 0 0 1 278.399994 580.799988)"/><line x1="29.8667" y1="67.8591" x2="29.8667" y2="100.8000" style="stroke:red;" transform="matrix(1 0 0 1 278.399994 580.799988)"/><line x1="37.3333" y1="30.9269" x2="37.3333" y2="0" style="stroke:red;" transform="matrix(1 0 0 1 278.399994 580.799988)"/><line x1="44.8000" y1="70.5600" x2="44.8000" y2="100.8000" style="stroke:red;" transform="matrix(1 0 0 1 278.399994 580.799988)"/><line x1="52.2667" y1="30.9269" x2="52.2667" y2="0" style="stroke:red;" transform="matrix(1 0 0 1 278.399994 580.799988)"/><line x1="59.7333" y1="67.8591" x2="59.7333" y2="100.8000" style="stroke:red;" transform="matrix(1 0 0 1 278.399994 580.799988)"/><line x1="67.2000" y1="36.1447" x2="67.2000" y2="0" style="stroke:red;" transform="matrix(1 0 0 1 278.399994 580.799988)"/><line x1="74.6667" y1="60.4800" x2="74.6667" y2="100.8000" style="stroke:red;" transform="matrix(1 0 0 1 278.399994 580.799988)"/><line x1="82.1333" y1="45.1822" x2="82.1333" y2="0" style="stroke:red;" transform="matrix(1 0 0 1 278.399994 580.799988)"/><line x1="89.6000" y1="50.4000" x2="89.6000" y2="100.8000" style="stroke:red;" transform="matrix(1 0 0 1 278.399994 580.799988)"/><line x1="97.0667" y1="55.6178" x2="97.0667" y2="0" style="stroke:red;" transform="matrix(1 0 0 1 278.399994 580.799988)"/><line x1="104.5333" y1="40.3200" x2="104.5333" y2="100.8000" style="stroke:red;" transform="matrix(1 0 0 1 278.399994 580.799988)"/><line x1="112.0000" y1="64.6553" x2="112.0000" y2="0" style="stroke:red;" transform="matrix(1 0 0 1 278.399994 580.799988)"/><line x1="119.4667" y1="32.9409" x2="119.4667" y2="100.8000" style="stroke:red;" transform="matrix(1 0 0 1 278.399994 580.799988)"/><line x1="126.9333" y1="69.8731" x2="126.9333" y2="0" style="stroke:red;" transform="matrix(1 0 0 1 278.399994 580.799988)"/><line x1="134.4000" y1="30.2400" x2="134.4000" y2="100.8000" style="stroke:red;" transform="matrix(1 0 0 1 278.399994 580.799988)"/><line x1="0" y1="56.6298" x2="0" y2="100.8000" style="stroke:red;" transform="matrix(1 0 0 1 460.799988 580.799988)"/><line x1="7.4667" y1="39.4201" x2="7.4667" y2="0" style="stroke:red;" transform="matrix(1 0 0 1 460.799988 580.799988)"/><line x1="14.9333" y1="65.3818" x2="14.9333" y2="100.8000" style="stroke:red;" transform="matrix(1 0 0 1 460.799988 580.799988)"/><line x1="22.4000" y1="32.4373" x2="22.4000" y2="0" style="stroke:red;" transform="matrix(1 0 0 1 460.799988 580.799988)"/><line x1="29.8667" y1="70.1195" x2="29.8667" y2="100.8000" style="stroke:red;" transform="matrix(1 0 0 1 460.799988 580.799988)"/><line x1="37.3333" y1="30.2676" x2="37.3333" y2="0" style="stroke:red;" transform="matrix(1 0 0 1 460.799988 580.799988)"/><line x1="44.8000" y1="69.5733" x2="44.8000" y2="100.8000" style="stroke:red;" transform="matrix(1 0 0 1 460.799988 580.799988)"/><line x1="52.2667" y1="33.4924" x2="52.2667" y2="0" style="stroke:red;" transform="matrix(1 0 0 1 460.799988 580.799988)"/><line x1="59.7333" y1="63.8897" x2="59.7333" y2="100.8000" style="stroke:red;" transform="matrix(1 0 0 1 460.799988 580.799988)"/><line x1="67.2000" y1="41.2476" x2="67.2000" y2="0" style="stroke:red;" transform="matrix(1 0 0 1 460.799988 580.799988)"/><line x1="74.6667" y1="54.5915" x2="74.6667" y2="100.8000" style="stroke:red;" transform="matrix(1 0 0 1 460.799988 580.799988)"/><line x1="82.1333" y1="51.4551" x2="82.1333" y2="0" style="stroke:red;" transform="matrix(1 0 0 1 460.799988 580.799988)"/><line x1="89.6000" y1="44.1702" x2="89.6000" y2="100.8000" style="stroke:red;" transform="matrix(1 0 0 1 460.799988 580.799988)"/><line x1="97.0667" y1="61.3799" x2="97.0667" y2="0" style="stroke:red;" transform="matrix(1 0 0 1 460.799988 580.799988)"/><line x1="104.5333" y1="35.4182" x2="104.5333" y2="100.8000" style="stroke:red;" transform="matrix(1 0 0 1 460.799988 580.799988)"/><line x1="112.0000" y1="68.3627" x2="112.0000" y2="0" style="stroke:red;" transform="matrix(1 0 0 1 460.799988 580.799988)"/><line x1="119.4667" y1="30.6805" x2="119.4667" y2="100.8000" style="stroke:red;" transform="matrix(1 0 0 1 460.799988 580.799988)"/><line x1="126.9333" y1="70.5324" x2="126.9333" y2="0" style="stroke:red;" transform="matrix(1 0 0 1 460.799988 580.799988)"/><line x1="134.4000" y1="31.2267" x2="134.4000" y2="100.8000" style="stroke:red;" transform="matrix(1 0 0 1 460.799988 580.799988)"/><line x1="0" y1="62.2498" x2="0" y2="100.8000" style="stroke:red;" transform="matrix(1 0 0 1 643.200012 580.799988)"/><line x1="7.4667" y1="34.7327" x2="7.4667" y2="0" style="stroke:red;" transform="matrix(1 0 0 1 643.200012 580.799988)"/><line x1="14.9333" y1="68.8171" x2="14.9333" y2="100.8000" style="stroke:red;" transform="matrix(1 0 0 1 643.200012 580.799988)"/><line x1="22.4000" y1="30.4882" x2="22.4000" y2="0" style="stroke:red;" transform="matrix(1 0 0 1 643.200012 580.799988)"/><line x1="29.8667" y1="70.4496" x2="29.8667" y2="100.8000" style="stroke:red;" transform="matrix(1 0 0 1 643.200012 580.799988)"/><line x1="37.3333" y1="31.5790" x2="37.3333" y2="0" style="stroke:red;" transform="matrix(1 0 0 1 643.200012 580.799988)"/><line x1="44.8000" y1="66.7098" x2="44.8000" y2="100.8000" style="stroke:red;" transform="matrix(1 0 0 1 643.200012 580.799988)"/><line x1="52.2667" y1="37.7129" x2="52.2667" y2="0" style="stroke:red;" transform="matrix(1 0 0 1 643.200012 580.799988)"/><line x1="59.7333" y1="58.5998" x2="59.7333" y2="100.8000" style="stroke:red;" transform="matrix(1 0 0 1 643.200012 580.799988)"/><line x1="67.2000" y1="47.2463" x2="67.2000" y2="0" style="stroke:red;" transform="matrix(1 0 0 1 643.200012 580.799988)"/><line x1="74.6667" y1="48.2927" x2="74.6667" y2="100.8000" style="stroke:red;" transform="matrix(1 0 0 1 643.200012 580.799988)"/><line x1="82.1333" y1="57.6247" x2="82.1333" y2="0" style="stroke:red;" transform="matrix(1 0 0 1 643.200012 580.799988)"/><line x1="89.6000" y1="38.5502" x2="89.6000" y2="100.8000" style="stroke:red;" transform="matrix(1 0 0 1 643.200012 580.799988)"/><line x1="97.0667" y1="66.0673" x2="97.0667" y2="0" style="stroke:red;" transform="matrix(1 0 0 1 643.200012 580.799988)"/><line x1="104.5333" y1="31.9829" x2="104.5333" y2="100.8000" style="stroke:red;" transform="matrix(1 0 0 1 643.200012 580.799988)"/><line x1="112.0000" y1="70.3118" x2="112.0000" y2="0" style="stroke:red;" transform="matrix(1 0 0 1 643.200012 580.799988)"/><line x1="119.4667" y1="30.3504" x2="119.4667" y2="100.8000" style="stroke:red;" transform="matrix(1 0 0 1 643.200012 580.799988)"/><line x1="126.9333" y1="69.2210" x2="126.9333" y2="0" style="stroke:red;" transform="matrix(1 0 0 1 643.200012 580.799988)"/><line x1="134.4000" y1="34.0902" x2="134.4000" y2="100.8000" style="stroke:red;" transform="matrix(1 0 0 1 643.200012 580.799988)"/><line x1="0" y1="66.7098" x2="0" y2="100.8000" style="stroke:red;" transform="matrix(1 0 0 1 825.599976 580.799988)"/><line x1="7.4667" y1="31.5790" x2="7.4667" y2="0" style="stroke:red;" transform="matrix(1 0 0 1 825.599976 580.799988)"/><line x1="14.9333" y1="70.4496" x2="14.9333" y2="100.8000" style="stroke:red;" transform="matrix(1 0 0 1 825.599976 580.799988)"/><line x1="22.4000" y1="30.4882" x2="22.4000" y2="0" style="stroke:red;" transform="matrix(1 0 0 1 825.599976 580.799988)"/><line x1="29.8667" y1="68.8171" x2="29.8667" y2="100.8000" style="stroke:red;" transform="matrix(1 0 0 1 825.599976 580.799988)"/><line x1="37.3333" y1="34.7327" x2="37.3333" y2="0" style="stroke:red;" transform="matrix(1 0 0 1 825.599976 580.799988)"/><line x1="44.8000" y1="62.2498" x2="44.8000" y2="100.8000" style="stroke:red;" transform="matrix(1 0 0 1 825.599976 580.799988)"/><line x1="52.2667" y1="43.1753" x2="52.2667" y2="0" style="stroke:red;" transform="matrix(1 0 0 1 825.599976 580.799988)"/><line x1="59.7333" y1="52.5073" x2="59.7333" y2="100.8000" style="stroke:red;" transform="matrix(1 0 0 1 825.599976 580.799988)"/><line x1="67.2000" y1="53.5537" x2="67.2000" y2="0" style="stroke:red;" transform="matrix(1 0 0 1 825.599976 580.799988)"/><line x1="74.6667" y1="42.2002" x2="74.6667" y2="100.8000" style="stroke:red;" transform="matrix(1 0 0 1 825.599976 580.799988)"/><line x1="82.1333" y1="63.0871" x2="82.1333" y2="0" style="stroke:red;" transform="matrix(1 0 0 1 825.599976 580.799988)"/><line x1="89.6000" y1="34.0902" x2="89.6000" y2="100.8000" style="stroke:red;" transform="matrix(1 0 0 1 825.599976 580.799988)"/><line x1="97.0667" y1="69.2210" x2="97.0667" y2="0" style="stroke:red;" transform="matrix(1 0 0 1 825.599976 580.799988)"/><line x1="104.5333" y1="30.3504" x2="104.5333" y2="100.8000" style="stroke:red;" transform="matrix(1 0 0 1 825.599976 580.799988)"/><line x1="112.0000" y1="70.3118" x2="112.0000" y2="0" style="stroke:red;" transform="matrix(1 0 0 1 825.599976 580.799988)"/><line x1="119.4667" y1="31.9829" x2="119.4667" y2="100.8000" style="stroke:red;" transform="matrix(1 0 0 1 825.599976 580.799988)"/><line x1="126.9333" y1="66.0673" x2="126.9333" y2="0" style="stroke:red;" transform="matrix(1 0 0 1 825.599976 580.799988)"/><line x1="134.4000" y1="38.5502" x2="134.4000" y2="100.8000" style="stroke:red;" transform="matrix(1 0 0 1 825.599976 580.799988)"/></g></g>
</svg>